<svg width="182" height="27" viewBox="0 0 182 27" fill="none" xmlns="http://www.w3.org/2000/svg">
<path d="M12.87 2.933H7.755V3.329C8.184 3.329 8.448 3.362 8.943 3.527L0.132 26.066H2.673C2.475 24.119 3.168 21.974 3.399 21.248C3.564 20.852 3.729 20.357 3.927 19.796C6.534 16.727 11.319 15.506 14.751 15.671C14.751 15.671 17.556 21.182 17.556 25.736C17.556 25.802 17.589 26.066 17.589 26.066H22.374L12.87 2.933ZM5.049 17.189L4.95 17.024C6.666 12.437 9.042 6.332 9.966 3.923H10.197L14.256 14.351C11.088 14.912 7.557 16.034 5.049 17.189ZM32.9221 8.774C30.7111 8.774 28.8301 9.797 27.2791 11.447V0.325998H26.9821C25.4641 1.25 23.1211 1.349 23.1211 1.349V1.679C24.0121 2.438 24.2431 2.999 24.2431 4.055L24.3421 26.033H24.5731L25.9921 24.185H26.1901C27.6091 25.571 29.5231 26.396 31.9651 26.396C36.3871 26.396 40.1491 22.733 40.1491 17.321C40.1491 12.305 37.0471 8.774 32.9221 8.774ZM31.6681 25.637C29.7211 25.637 28.1041 24.614 27.2791 22.667V13.064C28.2361 11.381 30.3811 10.061 31.9651 10.061C34.8031 10.061 36.9151 12.437 36.9151 17.618C36.9151 22.7 34.7371 25.637 31.6681 25.637ZM51.0172 8.774C46.0672 8.774 42.3712 12.338 42.3712 17.717C42.3712 23.096 45.9022 26.396 50.7202 26.396C55.6702 26.396 59.3992 22.865 59.3992 17.519C59.3992 12.107 55.8352 8.774 51.0172 8.774ZM50.9182 25.604C47.7832 25.604 45.6052 22.37 45.6052 17.519C45.6052 12.701 47.6512 9.566 50.8192 9.566C53.9542 9.566 56.1652 12.833 56.1652 17.684C56.1652 22.469 54.0862 25.604 50.9182 25.604ZM77.0875 21.776V8.708H76.7905C75.8335 9.203 74.2825 9.368 73.5565 9.5V9.731C73.5565 9.731 74.0845 11.381 74.0845 12.437V21.908C73.1605 23.657 71.3455 24.977 69.8935 24.977C65.7355 24.977 65.5705 20.489 65.5705 20.489V18.08H65.6035V8.708H65.3065C63.7885 9.632 61.4455 9.731 61.4455 9.731V10.061C62.2375 10.754 62.5345 11.282 62.5675 12.173V20.423C62.5675 24.482 64.4815 26.396 67.9795 26.396C70.4215 26.396 72.6325 25.142 74.1835 23.492L74.3485 23.459C74.6785 24.548 74.8765 24.977 75.5365 26.033H78.4075V25.736C77.3515 24.416 77.0875 23.657 77.0875 21.776ZM90.726 21.578L90.528 21.545C89.571 24.548 88.614 25.538 87.492 25.538C86.337 25.538 85.248 24.383 85.248 21.974V10.226C86.568 10.226 88.449 10.688 90.825 11.744H90.99L90.957 9.17H85.215L85.248 3.758H84.852C84.852 3.758 83.466 8.18 82.278 9.038C81.816 9.368 79.803 9.434 79.803 9.434V10.193H82.245V21.776C82.245 24.515 84.126 26.396 86.997 26.396C89.406 26.396 90.66 25.736 91.683 24.977L90.726 21.578ZM109.947 2.933H100.311V3.329H100.641C101.169 3.362 101.829 3.527 101.829 4.121V20.72C101.829 23.591 101.598 25.274 100.872 25.769V26H109.386C117.24 26 122.19 21.677 122.19 14.219C122.19 6.893 117.273 2.933 109.947 2.933ZM109.947 25.241C107.406 25.241 105.888 25.142 105.063 24.944V3.692H109.65C115.095 3.692 118.626 7.85 118.626 14.384C118.626 21.479 115.458 25.241 109.947 25.241ZM128.61 22.436V8.807H128.313C126.795 9.731 124.452 9.83 124.452 9.83V10.193C125.343 10.952 125.574 11.48 125.574 12.569V22.436C125.574 24.317 125.442 25.142 124.947 25.769V26H129.237V25.769C128.742 25.142 128.61 24.317 128.61 22.436ZM126.828 6.167C127.884 6.167 128.742 5.309 128.742 4.253C128.742 3.197 127.884 2.339 126.828 2.339C125.772 2.339 124.914 3.197 124.914 4.253C124.914 5.309 125.772 6.167 126.828 6.167ZM144.905 21.776V14.78C144.905 10.688 142.925 8.774 138.998 8.774C136.523 8.774 134.708 9.533 133.223 10.325L132.398 15.242L132.761 15.275C135.302 10.424 136.919 9.566 138.932 9.566C141.407 9.566 141.902 12.239 141.902 15.077V16.562C140.945 16.661 139.922 16.727 138.8 16.859C134.444 17.354 131.639 19.466 131.639 22.436C131.639 24.779 133.388 26.33 136.061 26.33C138.074 26.33 140.351 25.373 142.001 23.789C142.001 24.482 142.793 25.604 143.222 26.033H146.456V25.736C145.268 24.515 144.905 23.657 144.905 21.776ZM141.902 22.898C140.648 24.284 139.064 24.944 137.678 24.944C135.962 24.944 134.609 24.152 134.609 21.908C134.609 18.839 137.579 17.783 141.902 17.354V22.898ZM163.942 22.799V14.78C163.942 10.688 162.061 8.774 158.53 8.774C156.055 8.774 154.24 9.896 152.491 11.546H152.392V8.708H152.095C150.577 9.632 148.234 9.731 148.234 9.731V10.061C149.092 10.82 149.356 11.348 149.356 12.371V22.898C149.323 24.449 149.158 25.208 148.729 25.769V26.033H153.019V25.769C152.524 25.142 152.392 24.317 152.392 22.436V12.998C153.778 11.282 155.593 10.226 157.243 10.226C159.85 10.226 160.939 12.239 160.939 14.714V22.436C160.939 24.317 160.774 25.142 160.312 25.769V26H164.602V25.769C164.14 25.175 163.975 24.416 163.942 22.799ZM180.193 21.776V14.78C180.193 10.688 178.213 8.774 174.286 8.774C171.811 8.774 169.996 9.533 168.511 10.325L167.686 15.242L168.049 15.275C170.59 10.424 172.207 9.566 174.22 9.566C176.695 9.566 177.19 12.239 177.19 15.077V16.562C176.233 16.661 175.21 16.727 174.088 16.859C169.732 17.354 166.927 19.466 166.927 22.436C166.927 24.779 168.676 26.33 171.349 26.33C173.362 26.33 175.639 25.373 177.289 23.789C177.289 24.482 178.081 25.604 178.51 26.033H181.744V25.736C180.556 24.515 180.193 23.657 180.193 21.776ZM177.19 22.898C175.936 24.284 174.352 24.944 172.966 24.944C171.25 24.944 169.897 24.152 169.897 21.908C169.897 18.839 172.867 17.783 177.19 17.354V22.898Z" fill="#1B1B50"/>
</svg>
