<svg width="297" height="122" viewBox="0 0 297 122" fill="none" xmlns="http://www.w3.org/2000/svg">
<path d="M11.4942 12.932L9.51418 12.206C6.34618 11.051 3.37618 9.83 3.37618 7.091C3.37618 4.88 5.52118 3.329 9.18418 3.329C12.4512 3.329 15.8172 5.903 17.3682 10.292H17.5992L17.0712 3.791C14.9592 2.933 12.7812 2.537 9.54718 2.537C4.06918 2.537 0.472184 5.144 0.472184 8.642C0.472184 12.404 4.63018 14.054 7.73218 15.209L9.71218 15.902C12.6492 16.958 15.9822 18.41 15.9822 20.72C15.9492 23.327 13.1772 25.373 9.87718 25.373C5.55418 25.373 2.25418 21.413 1.19818 15.308H0.670184L0.241184 22.733C2.15518 25.01 6.18118 26.396 9.54718 26.396C15.3222 26.396 18.8862 23.591 18.8862 19.73C18.8862 15.803 15.0582 14.285 11.4942 12.932ZM36.4659 21.776V8.708H36.1689C35.2119 9.203 33.6609 9.368 32.9349 9.5V9.731C32.9349 9.731 33.4629 11.381 33.4629 12.437V21.908C32.5389 23.657 30.7239 24.977 29.2719 24.977C25.1139 24.977 24.9489 20.489 24.9489 20.489V18.08H24.9819V8.708H24.6849C23.1669 9.632 20.8239 9.731 20.8239 9.731V10.061C21.6159 10.754 21.9129 11.282 21.9459 12.173V20.423C21.9459 24.482 23.8599 26.396 27.3579 26.396C29.7999 26.396 32.0109 25.142 33.5619 23.492L33.7269 23.459C34.0569 24.548 34.2549 24.977 34.9149 26.033H37.7859V25.736C36.7299 24.416 36.4659 23.657 36.4659 21.776ZM47.9924 16.397L46.6064 15.869C44.6924 15.11 42.7124 14.12 42.7124 12.107C42.7124 10.556 44.4284 9.566 46.3754 9.566C48.8174 9.566 50.5004 10.787 52.6784 14.45H53.0084L52.6784 10.622C50.8304 9.368 49.1144 8.774 46.7054 8.774C42.7784 8.774 40.3034 10.754 40.3034 13.427C40.3034 16.43 43.3394 17.618 45.5834 18.509L47.0024 19.037C49.1804 19.862 50.9294 20.39 50.9624 22.403C50.9954 23.954 49.7414 25.637 47.3654 25.637C45.1214 25.637 42.4814 24.152 40.8974 20.258H40.6004L40.0724 24.317C41.4914 25.406 43.5704 26.396 46.9364 26.396C51.3584 26.396 53.4704 24.284 53.4704 21.38C53.4704 18.245 50.1374 17.222 47.9924 16.397ZM65.7343 21.578L65.5363 21.545C64.5793 24.548 63.6223 25.538 62.5003 25.538C61.3453 25.538 60.2563 24.383 60.2563 21.974V10.226C61.5763 10.226 63.4573 10.688 65.8333 11.744H65.9983L65.9653 9.17H60.2233L60.2563 3.758H59.8603C59.8603 3.758 58.4743 8.18 57.2863 9.038C56.8243 9.368 54.8113 9.434 54.8113 9.434V10.193H57.2533V21.776C57.2533 24.515 59.1343 26.396 62.0053 26.396C64.4143 26.396 65.6683 25.736 66.6913 24.977L65.7343 21.578ZM81.5957 21.776V14.78C81.5957 10.688 79.6157 8.774 75.6887 8.774C73.2137 8.774 71.3987 9.533 69.9137 10.325L69.0887 15.242L69.4517 15.275C71.9927 10.424 73.6097 9.566 75.6227 9.566C78.0977 9.566 78.5927 12.239 78.5927 15.077V16.562C77.6357 16.661 76.6127 16.727 75.4907 16.859C71.1347 17.354 68.3297 19.466 68.3297 22.436C68.3297 24.779 70.0787 26.33 72.7517 26.33C74.7647 26.33 77.0417 25.373 78.6917 23.789C78.6917 24.482 79.4837 25.604 79.9127 26.033H83.1467V25.736C81.9587 24.515 81.5957 23.657 81.5957 21.776ZM78.5927 22.898C77.3387 24.284 75.7547 24.944 74.3687 24.944C72.6527 24.944 71.2997 24.152 71.2997 21.908C71.2997 18.839 74.2697 17.783 78.5927 17.354V22.898ZM89.1159 22.436V8.807H88.8189C87.3009 9.731 84.9579 9.83 84.9579 9.83V10.193C85.8489 10.952 86.0799 11.48 86.0799 12.569V22.436C86.0799 24.317 85.9479 25.142 85.4529 25.769V26H89.7429V25.769C89.2479 25.142 89.1159 24.317 89.1159 22.436ZM87.3339 6.167C88.3899 6.167 89.2479 5.309 89.2479 4.253C89.2479 3.197 88.3899 2.339 87.3339 2.339C86.2779 2.339 85.4199 3.197 85.4199 4.253C85.4199 5.309 86.2779 6.167 87.3339 6.167ZM107.787 22.799V14.78C107.787 10.688 105.906 8.774 102.375 8.774C99.9002 8.774 98.0852 9.896 96.3362 11.546H96.2372V8.708H95.9402C94.4222 9.632 92.0792 9.731 92.0792 9.731V10.061C92.9372 10.82 93.2012 11.348 93.2012 12.371V22.898C93.1682 24.449 93.0032 25.208 92.5742 25.769V26.033H96.8642V25.769C96.3692 25.142 96.2372 24.317 96.2372 22.436V12.998C97.6232 11.282 99.4382 10.226 101.088 10.226C103.695 10.226 104.784 12.239 104.784 14.714V22.436C104.784 24.317 104.619 25.142 104.157 25.769V26H108.447V25.769C107.985 25.175 107.82 24.416 107.787 22.799ZM124.038 21.776V14.78C124.038 10.688 122.058 8.774 118.131 8.774C115.656 8.774 113.841 9.533 112.356 10.325L111.531 15.242L111.894 15.275C114.435 10.424 116.052 9.566 118.065 9.566C120.54 9.566 121.035 12.239 121.035 15.077V16.562C120.078 16.661 119.055 16.727 117.933 16.859C113.577 17.354 110.772 19.466 110.772 22.436C110.772 24.779 112.521 26.33 115.194 26.33C117.207 26.33 119.484 25.373 121.134 23.789C121.134 24.482 121.926 25.604 122.355 26.033H125.589V25.736C124.401 24.515 124.038 23.657 124.038 21.776ZM121.035 22.898C119.781 24.284 118.197 24.944 116.811 24.944C115.095 24.944 113.742 24.152 113.742 21.908C113.742 18.839 116.712 17.783 121.035 17.354V22.898ZM136.128 8.774C133.917 8.774 132.036 9.797 130.485 11.447V0.325998H130.188C128.67 1.25 126.327 1.349 126.327 1.349V1.679C127.218 2.438 127.449 2.999 127.449 4.055L127.548 26.033H127.779L129.198 24.185H129.396C130.815 25.571 132.729 26.396 135.171 26.396C139.593 26.396 143.355 22.733 143.355 17.321C143.355 12.305 140.253 8.774 136.128 8.774ZM134.874 25.637C132.927 25.637 131.31 24.614 130.485 22.667V13.064C131.442 11.381 133.587 10.061 135.171 10.061C138.009 10.061 140.121 12.437 140.121 17.618C140.121 22.7 137.943 25.637 134.874 25.637ZM149.116 22.436V0.325998H148.819C147.301 1.25 144.958 1.349 144.958 1.349V1.679C145.849 2.438 146.08 2.999 146.08 4.055V22.469C146.08 24.317 145.948 25.142 145.453 25.769V26H149.743V25.769C149.248 25.142 149.116 24.317 149.116 22.436ZM160.203 8.774C155.319 8.774 152.184 12.371 152.184 17.816C152.184 22.964 155.517 26.33 160.269 26.33C162.975 26.33 165.252 25.076 166.869 23.921L166.077 19.829H165.846C164.658 23.591 162.711 25.274 160.533 25.274C157.959 25.274 155.484 22.931 155.484 17.321V16.628C155.484 16.628 164.46 16.628 167.166 16.628C167.364 16.628 167.496 16.331 167.496 16.199C167.496 12.635 164.757 8.774 160.203 8.774ZM164.658 15.869H155.517C155.847 12.239 157.662 9.566 160.434 9.566C163.107 9.566 164.856 12.107 164.658 15.869ZM195.746 9.17C195.911 11.777 196.109 14.021 194.492 18.773C194.261 19.4 193.601 21.017 193.601 21.017H193.469L188.255 9.17H188.057L183.965 20.72H183.833L179.576 9.17H176.012L182.975 26H183.272L187.43 14.219H187.661L192.809 26H193.073L195.845 18.806C197.594 14.351 198.452 11.909 199.706 9.17H195.746ZM207.931 8.774C203.047 8.774 199.912 12.371 199.912 17.816C199.912 22.964 203.245 26.33 207.997 26.33C210.703 26.33 212.98 25.076 214.597 23.921L213.805 19.829H213.574C212.386 23.591 210.439 25.274 208.261 25.274C205.687 25.274 203.212 22.931 203.212 17.321V16.628C203.212 16.628 212.188 16.628 214.894 16.628C215.092 16.628 215.224 16.331 215.224 16.199C215.224 12.635 212.485 8.774 207.931 8.774ZM212.386 15.869H203.245C203.575 12.239 205.39 9.566 208.162 9.566C210.835 9.566 212.584 12.107 212.386 15.869ZM221.239 22.436V0.325998H220.942C219.424 1.25 217.081 1.349 217.081 1.349V1.679C217.972 2.438 218.203 2.999 218.203 4.055V22.469C218.203 24.317 218.071 25.142 217.576 25.769V26H221.866V25.769C221.371 25.142 221.239 24.317 221.239 22.436ZM228.135 22.436V0.325998H227.838C226.32 1.25 223.977 1.349 223.977 1.349V1.679C224.868 2.438 225.099 2.999 225.099 4.055V22.469C225.099 24.317 224.967 25.142 224.472 25.769V26H228.762V25.769C228.267 25.142 228.135 24.317 228.135 22.436ZM246.813 22.799V14.78C246.813 10.688 244.932 8.774 241.401 8.774C238.926 8.774 237.111 9.896 235.362 11.546H235.263V8.708H234.966C233.448 9.632 231.105 9.731 231.105 9.731V10.061C231.963 10.82 232.227 11.348 232.227 12.371V22.898C232.194 24.449 232.029 25.208 231.6 25.769V26.033H235.89V25.769C235.395 25.142 235.263 24.317 235.263 22.436V12.998C236.649 11.282 238.464 10.226 240.114 10.226C242.721 10.226 243.81 12.239 243.81 14.714V22.436C243.81 24.317 243.645 25.142 243.183 25.769V26H247.473V25.769C247.011 25.175 246.846 24.416 246.813 22.799ZM257.849 8.774C252.965 8.774 249.83 12.371 249.83 17.816C249.83 22.964 253.163 26.33 257.915 26.33C260.621 26.33 262.898 25.076 264.515 23.921L263.723 19.829H263.492C262.304 23.591 260.357 25.274 258.179 25.274C255.605 25.274 253.13 22.931 253.13 17.321V16.628C253.13 16.628 262.106 16.628 264.812 16.628C265.01 16.628 265.142 16.331 265.142 16.199C265.142 12.635 262.403 8.774 257.849 8.774ZM262.304 15.869H253.163C253.493 12.239 255.308 9.566 258.08 9.566C260.753 9.566 262.502 12.107 262.304 15.869ZM275.448 16.397L274.062 15.869C272.148 15.11 270.168 14.12 270.168 12.107C270.168 10.556 271.884 9.566 273.831 9.566C276.273 9.566 277.956 10.787 280.134 14.45H280.464L280.134 10.622C278.286 9.368 276.57 8.774 274.161 8.774C270.234 8.774 267.759 10.754 267.759 13.427C267.759 16.43 270.795 17.618 273.039 18.509L274.458 19.037C276.636 19.862 278.385 20.39 278.418 22.403C278.451 23.954 277.197 25.637 274.821 25.637C272.577 25.637 269.937 24.152 268.353 20.258H268.056L267.528 24.317C268.947 25.406 271.026 26.396 274.392 26.396C278.814 26.396 280.926 24.284 280.926 21.38C280.926 18.245 277.593 17.222 275.448 16.397ZM291.4 16.397L290.014 15.869C288.1 15.11 286.12 14.12 286.12 12.107C286.12 10.556 287.836 9.566 289.783 9.566C292.225 9.566 293.908 10.787 296.086 14.45H296.416L296.086 10.622C294.238 9.368 292.522 8.774 290.113 8.774C286.186 8.774 283.711 10.754 283.711 13.427C283.711 16.43 286.747 17.618 288.991 18.509L290.41 19.037C292.588 19.862 294.337 20.39 294.37 22.403C294.403 23.954 293.149 25.637 290.773 25.637C288.529 25.637 285.889 24.152 284.305 20.258H284.008L283.48 24.317C284.899 25.406 286.978 26.396 290.344 26.396C294.766 26.396 296.878 24.284 296.878 21.38C296.878 18.245 293.545 17.222 291.4 16.397ZM44.4015 66.436V52.807H44.1045C42.5865 53.731 40.2435 53.83 40.2435 53.83V54.193C41.1345 54.952 41.3655 55.48 41.3655 56.569V66.436C41.3655 68.317 41.2335 69.142 40.7385 69.769V70H45.0285V69.769C44.5335 69.142 44.4015 68.317 44.4015 66.436ZM42.6195 50.167C43.6755 50.167 44.5335 49.309 44.5335 48.253C44.5335 47.197 43.6755 46.339 42.6195 46.339C41.5635 46.339 40.7055 47.197 40.7055 48.253C40.7055 49.309 41.5635 50.167 42.6195 50.167ZM55.5818 60.397L54.1958 59.869C52.2818 59.11 50.3018 58.12 50.3018 56.107C50.3018 54.556 52.0178 53.566 53.9648 53.566C56.4068 53.566 58.0898 54.787 60.2678 58.45H60.5978L60.2678 54.622C58.4198 53.368 56.7038 52.774 54.2948 52.774C50.3678 52.774 47.8928 54.754 47.8928 57.427C47.8928 60.43 50.9288 61.618 53.1728 62.509L54.5918 63.037C56.7698 63.862 58.5188 64.39 58.5518 66.403C58.5848 67.954 57.3308 69.637 54.9548 69.637C52.7108 69.637 50.0708 68.152 48.4868 64.258H48.1898L47.6618 68.317C49.0808 69.406 51.1598 70.396 54.5258 70.396C58.9478 70.396 61.0598 68.284 61.0598 65.38C61.0598 62.245 57.7268 61.222 55.5818 60.397ZM83.8032 65.776V58.78C83.8032 54.688 81.8232 52.774 77.8962 52.774C75.4212 52.774 73.6062 53.533 72.1212 54.325L71.2962 59.242L71.6592 59.275C74.2002 54.424 75.8172 53.566 77.8302 53.566C80.3052 53.566 80.8002 56.239 80.8002 59.077V60.562C79.8432 60.661 78.8202 60.727 77.6982 60.859C73.3422 61.354 70.5372 63.466 70.5372 66.436C70.5372 68.779 72.2862 70.33 74.9592 70.33C76.9722 70.33 79.2492 69.373 80.8992 67.789C80.8992 68.482 81.6912 69.604 82.1202 70.033H85.3542V69.736C84.1662 68.515 83.8032 67.657 83.8032 65.776ZM80.8002 66.898C79.5462 68.284 77.9622 68.944 76.5762 68.944C74.8602 68.944 73.5072 68.152 73.5072 65.908C73.5072 62.839 76.4772 61.783 80.8002 61.354V66.898ZM103.692 52.774C101.481 52.774 99.5997 53.797 98.0487 55.447V44.326H97.7517C96.2337 45.25 93.8907 45.349 93.8907 45.349V45.679C94.7817 46.438 95.0127 46.999 95.0127 48.055L95.1117 70.033H95.3427L96.7617 68.185H96.9597C98.3787 69.571 100.293 70.396 102.735 70.396C107.157 70.396 110.919 66.733 110.919 61.321C110.919 56.305 107.817 52.774 103.692 52.774ZM102.438 69.637C100.491 69.637 98.8737 68.614 98.0487 66.667V57.064C99.0057 55.381 101.151 54.061 102.735 54.061C105.573 54.061 107.685 56.437 107.685 61.618C107.685 66.7 105.507 69.637 102.438 69.637ZM116.976 66.436V52.807H116.679C115.161 53.731 112.818 53.83 112.818 53.83V54.193C113.709 54.952 113.94 55.48 113.94 56.569V66.436C113.94 68.317 113.808 69.142 113.313 69.769V70H117.603V69.769C117.108 69.142 116.976 68.317 116.976 66.436ZM115.194 50.167C116.25 50.167 117.108 49.309 117.108 48.253C117.108 47.197 116.25 46.339 115.194 46.339C114.138 46.339 113.28 47.197 113.28 48.253C113.28 49.309 114.138 50.167 115.194 50.167ZM129.575 67.096L125.45 66.898C124.196 66.832 123.14 66.271 123.14 65.512C123.14 65.017 123.437 64.621 124.031 64.225C124.163 64.159 124.295 64.093 124.295 64.093C125.186 64.39 125.549 64.456 126.638 64.456C130.499 64.456 133.436 62.047 133.436 58.615C133.436 57.031 132.809 55.645 131.786 54.655C132.545 53.632 134.228 53.764 135.251 53.929L135.086 51.157C132.644 51.718 131.72 52.675 131.225 54.127C129.707 52.972 128.42 52.774 126.737 52.774C122.876 52.774 119.939 55.183 119.939 58.648C119.939 60.925 121.358 62.74 123.14 63.697C121.589 64.489 121.061 65.314 121.061 66.535C121.061 68.185 122.645 69.406 126.176 69.802L129.212 70.033C131.489 70.198 132.479 71.089 132.479 72.805C132.479 74.851 130.466 76.567 127.331 76.567C124.856 76.567 122.843 75.148 122.216 72.937C121.952 72.079 121.919 71.254 122.051 70.693L121.82 70.528L118.982 72.772C118.982 75.61 122.645 77.623 126.704 77.623C131.654 77.623 135.086 75.049 135.086 71.584C135.086 68.944 133.106 67.426 129.575 67.096ZM123.008 58.615C123.008 55.612 124.394 53.566 126.671 53.566C128.915 53.566 130.367 55.645 130.367 58.648C130.367 61.651 129.014 63.697 126.704 63.697C124.46 63.697 123.008 61.651 123.008 58.615ZM136.462 59.704V61.981C138.574 61.684 143.458 61.75 145.768 61.981V59.704C142.93 59.869 139.069 59.869 136.462 59.704ZM157.196 52.774C154.985 52.774 153.236 53.896 151.685 55.546H151.586V54.061V52.708H151.288C149.771 53.632 147.428 53.731 147.428 53.731V54.061C148.319 54.82 148.55 55.381 148.55 56.437V77.755H148.847C149.837 77.26 151.355 77.095 152.081 76.93L152.114 76.732C152.114 76.732 151.586 75.082 151.586 74.026V68.647C152.807 69.769 154.391 70.396 156.239 70.396C160.661 70.396 164.819 66.733 164.819 61.321C164.819 56.305 161.321 52.774 157.196 52.774ZM155.942 69.34C153.995 69.34 152.378 68.119 151.586 66.205V56.998C152.972 55.414 154.688 54.259 156.272 54.259C159.11 54.259 161.585 56.602 161.585 61.618C161.585 66.568 159.044 69.34 155.942 69.34ZM171.116 66.436V52.807H170.819C169.301 53.731 166.958 53.83 166.958 53.83V54.193C167.849 54.952 168.08 55.48 168.08 56.569V66.436C168.08 68.317 167.948 69.142 167.453 69.769V70H171.743V69.769C171.248 69.142 171.116 68.317 171.116 66.436ZM169.334 50.167C170.39 50.167 171.248 49.309 171.248 48.253C171.248 47.197 170.39 46.339 169.334 46.339C168.278 46.339 167.42 47.197 167.42 48.253C167.42 49.309 168.278 50.167 169.334 50.167ZM188.468 63.829H188.237C186.785 67.888 185.003 69.274 182.693 69.274C180.086 69.274 177.413 66.601 177.413 61.057C177.413 56.305 179.558 53.566 182.594 53.566C185.3 53.566 187.445 55.15 188.633 58.45H188.798L188.831 54.787C187.808 53.797 185.63 52.774 182.66 52.774C178.073 52.774 174.146 56.371 174.146 61.75C174.146 66.997 177.71 70.396 182.462 70.396C186.059 70.396 188.072 68.614 189.359 67.327L188.468 63.829ZM201.747 65.578L201.549 65.545C200.592 68.548 199.635 69.538 198.513 69.538C197.358 69.538 196.269 68.383 196.269 65.974V54.226C197.589 54.226 199.47 54.688 201.846 55.744H202.011L201.978 53.17H196.236L196.269 47.758H195.873C195.873 47.758 194.487 52.18 193.299 53.038C192.837 53.368 190.824 53.434 190.824 53.434V54.193H193.266V65.776C193.266 68.515 195.147 70.396 198.018 70.396C200.427 70.396 201.681 69.736 202.704 68.977L201.747 65.578ZM219.819 65.776V52.708H219.522C218.565 53.203 217.014 53.368 216.288 53.5V53.731C216.288 53.731 216.816 55.381 216.816 56.437V65.908C215.892 67.657 214.077 68.977 212.625 68.977C208.467 68.977 208.302 64.489 208.302 64.489V62.08H208.335V52.708H208.038C206.52 53.632 204.177 53.731 204.177 53.731V54.061C204.969 54.754 205.266 55.282 205.299 56.173V64.423C205.299 68.482 207.213 70.396 210.711 70.396C213.153 70.396 215.364 69.142 216.915 67.492L217.08 67.459C217.41 68.548 217.608 68.977 218.268 70.033H221.139V69.736C220.083 68.416 219.819 67.657 219.819 65.776ZM233.787 52.609C230.322 52.609 228.21 54.193 227.286 56.635L227.154 56.668L227.286 52.708H226.989C226.725 52.873 226.428 53.005 226.098 53.104L225.075 53.434C224.019 53.665 223.128 53.731 223.128 53.731V54.061C223.986 54.787 224.25 55.315 224.25 56.338V66.964C224.217 68.482 224.052 69.208 223.623 69.769V70H227.913V69.769C227.418 69.142 227.286 68.317 227.286 66.436V60.133C227.319 57.196 228.441 55.183 230.85 55.183C232.269 55.183 233.457 55.744 234.315 57.46L234.678 57.328L233.787 52.609ZM244.105 52.774C239.221 52.774 236.086 56.371 236.086 61.816C236.086 66.964 239.419 70.33 244.171 70.33C246.877 70.33 249.154 69.076 250.771 67.921L249.979 63.829H249.748C248.56 67.591 246.613 69.274 244.435 69.274C241.861 69.274 239.386 66.931 239.386 61.321V60.628C239.386 60.628 248.362 60.628 251.068 60.628C251.266 60.628 251.398 60.331 251.398 60.199C251.398 56.635 248.659 52.774 244.105 52.774ZM248.56 59.869H239.419C239.749 56.239 241.564 53.566 244.336 53.566C247.009 53.566 248.758 56.107 248.56 59.869ZM255.07 66.535C254.014 66.535 253.189 67.393 253.189 68.449C253.189 69.208 253.585 69.637 254.146 70.132C254.74 70.594 255.004 70.957 255.004 71.485C255.037 72.079 254.839 72.904 254.014 74.29L254.344 74.488C255.961 72.607 256.852 70.759 257.017 69.34C257.248 67.558 256.291 66.535 255.07 66.535ZM8.22718 110.436V96.807H7.93018C6.41218 97.731 4.06918 97.83 4.06918 97.83V98.193C4.96018 98.952 5.19118 99.48 5.19118 100.569V110.436C5.19118 112.317 5.05918 113.142 4.56418 113.769V114H8.85418V113.769C8.35918 113.142 8.22718 112.317 8.22718 110.436ZM6.44518 94.167C7.50118 94.167 8.35918 93.309 8.35918 92.253C8.35918 91.197 7.50118 90.339 6.44518 90.339C5.38918 90.339 4.53118 91.197 4.53118 92.253C4.53118 93.309 5.38918 94.167 6.44518 94.167ZM26.8985 110.799V102.78C26.8985 98.688 25.0175 96.774 21.4865 96.774C19.0115 96.774 17.1965 97.896 15.4475 99.546H15.3485V96.708H15.0515C13.5335 97.632 11.1905 97.731 11.1905 97.731V98.061C12.0485 98.82 12.3125 99.348 12.3125 100.371V110.898C12.2795 112.449 12.1145 113.208 11.6855 113.769V114.033H15.9755V113.769C15.4805 113.142 15.3485 112.317 15.3485 110.436V100.998C16.7345 99.282 18.5495 98.226 20.1995 98.226C22.8065 98.226 23.8955 100.239 23.8955 102.714V110.436C23.8955 112.317 23.7305 113.142 23.2685 113.769V114H27.5585V113.769C27.0965 113.175 26.9315 112.416 26.8985 110.799ZM38.0344 104.397L36.6484 103.869C34.7344 103.11 32.7544 102.12 32.7544 100.107C32.7544 98.556 34.4704 97.566 36.4174 97.566C38.8594 97.566 40.5424 98.787 42.7204 102.45H43.0504L42.7204 98.622C40.8724 97.368 39.1564 96.774 36.7474 96.774C32.8204 96.774 30.3454 98.754 30.3454 101.427C30.3454 104.43 33.3814 105.618 35.6254 106.509L37.0444 107.037C39.2224 107.862 40.9714 108.39 41.0044 110.403C41.0374 111.954 39.7834 113.637 37.4074 113.637C35.1634 113.637 32.5234 112.152 30.9394 108.258H30.6424L30.1144 112.317C31.5334 113.406 33.6124 114.396 36.9784 114.396C41.4004 114.396 43.5124 112.284 43.5124 109.38C43.5124 106.245 40.1794 105.222 38.0344 104.397ZM49.9606 110.436V96.807H49.6636C48.1456 97.731 45.8026 97.83 45.8026 97.83V98.193C46.6936 98.952 46.9246 99.48 46.9246 100.569V110.436C46.9246 112.317 46.7926 113.142 46.2976 113.769V114H50.5876V113.769C50.0926 113.142 49.9606 112.317 49.9606 110.436ZM48.1786 94.167C49.2346 94.167 50.0926 93.309 50.0926 92.253C50.0926 91.197 49.2346 90.339 48.1786 90.339C47.1226 90.339 46.2646 91.197 46.2646 92.253C46.2646 93.309 47.1226 94.167 48.1786 94.167ZM68.8299 109.149V88.326H68.5329C67.0479 89.25 64.6719 89.349 64.6719 89.349V89.679C65.5629 90.438 65.8269 90.999 65.8269 92.055V98.523C64.5729 97.434 62.9889 96.774 61.1739 96.774C56.7189 96.774 52.9899 100.47 52.9899 105.882C52.9899 110.865 56.0919 114.396 60.2169 114.396C62.4279 114.396 64.4409 113.307 65.9919 111.624C66.1569 112.482 66.5199 113.241 67.0149 114.033H70.2489V113.736C69.1929 111.822 68.8299 111.03 68.8299 109.149ZM61.1409 113.274C58.2369 113.274 56.2239 110.733 56.2239 105.585C56.2239 100.47 58.3359 97.764 61.4709 97.764C63.4179 97.764 65.3979 98.853 65.8269 100.734V110.535C64.2759 112.152 62.7249 113.274 61.1409 113.274ZM80.3134 96.774C75.4294 96.774 72.2944 100.371 72.2944 105.816C72.2944 110.964 75.6274 114.33 80.3794 114.33C83.0854 114.33 85.3624 113.076 86.9794 111.921L86.1874 107.829H85.9564C84.7684 111.591 82.8214 113.274 80.6434 113.274C78.0694 113.274 75.5944 110.931 75.5944 105.321V104.628C75.5944 104.628 84.5704 104.628 87.2764 104.628C87.4744 104.628 87.6064 104.331 87.6064 104.199C87.6064 100.635 84.8674 96.774 80.3134 96.774ZM84.7684 103.869H75.6274C75.9574 100.239 77.7724 97.566 80.5444 97.566C83.2174 97.566 84.9664 100.107 84.7684 103.869ZM105.561 96.774C100.611 96.774 96.9147 100.338 96.9147 105.717C96.9147 111.096 100.446 114.396 105.264 114.396C110.214 114.396 113.943 110.865 113.943 105.519C113.943 100.107 110.379 96.774 105.561 96.774ZM105.462 113.604C102.327 113.604 100.149 110.37 100.149 105.519C100.149 100.701 102.195 97.566 105.363 97.566C108.498 97.566 110.709 100.833 110.709 105.684C110.709 110.469 108.63 113.604 105.462 113.604ZM131.631 109.776V96.708H131.334C130.377 97.203 128.826 97.368 128.1 97.5V97.731C128.1 97.731 128.628 99.381 128.628 100.437V109.908C127.704 111.657 125.889 112.977 124.437 112.977C120.279 112.977 120.114 108.489 120.114 108.489V106.08H120.147V96.708H119.85C118.332 97.632 115.989 97.731 115.989 97.731V98.061C116.781 98.754 117.078 99.282 117.111 100.173V108.423C117.111 112.482 119.025 114.396 122.523 114.396C124.965 114.396 127.176 113.142 128.727 111.492L128.892 111.459C129.222 112.548 129.42 112.977 130.08 114.033H132.951V113.736C131.895 112.416 131.631 111.657 131.631 109.776ZM145.269 109.578L145.071 109.545C144.114 112.548 143.157 113.538 142.035 113.538C140.88 113.538 139.791 112.383 139.791 109.974V98.226C141.111 98.226 142.992 98.688 145.368 99.744H145.533L145.5 97.17H139.758L139.791 91.758H139.395C139.395 91.758 138.009 96.18 136.821 97.038C136.359 97.368 134.346 97.434 134.346 97.434V98.193H136.788V109.776C136.788 112.515 138.669 114.396 141.54 114.396C143.949 114.396 145.203 113.736 146.226 112.977L145.269 109.578ZM168.285 109.776V102.78C168.285 98.688 166.305 96.774 162.378 96.774C159.903 96.774 158.088 97.533 156.603 98.325L155.778 103.242L156.141 103.275C158.682 98.424 160.299 97.566 162.312 97.566C164.787 97.566 165.282 100.239 165.282 103.077V104.562C164.325 104.661 163.302 104.727 162.18 104.859C157.824 105.354 155.019 107.466 155.019 110.436C155.019 112.779 156.768 114.33 159.441 114.33C161.454 114.33 163.731 113.373 165.381 111.789C165.381 112.482 166.173 113.604 166.602 114.033H169.836V113.736C168.648 112.515 168.285 111.657 168.285 109.776ZM165.282 110.898C164.028 112.284 162.444 112.944 161.058 112.944C159.342 112.944 157.989 112.152 157.989 109.908C157.989 106.839 160.959 105.783 165.282 105.354V110.898ZM181.349 96.774C179.138 96.774 177.389 97.896 175.838 99.546H175.739V98.061V96.708H175.442C173.924 97.632 171.581 97.731 171.581 97.731V98.061C172.472 98.82 172.703 99.381 172.703 100.437V121.755H173C173.99 121.26 175.508 121.095 176.234 120.93L176.267 120.732C176.267 120.732 175.739 119.082 175.739 118.026V112.647C176.96 113.769 178.544 114.396 180.392 114.396C184.814 114.396 188.972 110.733 188.972 105.321C188.972 100.305 185.474 96.774 181.349 96.774ZM180.095 113.34C178.148 113.34 176.531 112.119 175.739 110.205V100.998C177.125 99.414 178.841 98.259 180.425 98.259C183.263 98.259 185.738 100.602 185.738 105.618C185.738 110.568 183.197 113.34 180.095 113.34ZM200.814 96.774C198.603 96.774 196.854 97.896 195.303 99.546H195.204V98.061V96.708H194.907C193.389 97.632 191.046 97.731 191.046 97.731V98.061C191.937 98.82 192.168 99.381 192.168 100.437V121.755H192.465C193.455 121.26 194.973 121.095 195.699 120.93L195.732 120.732C195.732 120.732 195.204 119.082 195.204 118.026V112.647C196.425 113.769 198.009 114.396 199.857 114.396C204.279 114.396 208.437 110.733 208.437 105.321C208.437 100.305 204.939 96.774 200.814 96.774ZM199.56 113.34C197.613 113.34 195.996 112.119 195.204 110.205V100.998C196.59 99.414 198.306 98.259 199.89 98.259C202.728 98.259 205.203 100.602 205.203 105.618C205.203 110.568 202.662 113.34 199.56 113.34ZM221.203 96.609C217.738 96.609 215.626 98.193 214.702 100.635L214.57 100.668L214.702 96.708H214.405C214.141 96.873 213.844 97.005 213.514 97.104L212.491 97.434C211.435 97.665 210.544 97.731 210.544 97.731V98.061C211.402 98.787 211.666 99.315 211.666 100.338V110.964C211.633 112.482 211.468 113.208 211.039 113.769V114H215.329V113.769C214.834 113.142 214.702 112.317 214.702 110.436V104.133C214.735 101.196 215.857 99.183 218.266 99.183C219.685 99.183 220.873 99.744 221.731 101.46L222.094 101.328L221.203 96.609ZM232.114 96.774C227.164 96.774 223.468 100.338 223.468 105.717C223.468 111.096 226.999 114.396 231.817 114.396C236.767 114.396 240.496 110.865 240.496 105.519C240.496 100.107 236.932 96.774 232.114 96.774ZM232.015 113.604C228.88 113.604 226.702 110.37 226.702 105.519C226.702 100.701 228.748 97.566 231.916 97.566C235.051 97.566 237.262 100.833 237.262 105.684C237.262 110.469 235.183 113.604 232.015 113.604ZM255.974 109.776V102.78C255.974 98.688 253.994 96.774 250.067 96.774C247.592 96.774 245.777 97.533 244.292 98.325L243.467 103.242L243.83 103.275C246.371 98.424 247.988 97.566 250.001 97.566C252.476 97.566 252.971 100.239 252.971 103.077V104.562C252.014 104.661 250.991 104.727 249.869 104.859C245.513 105.354 242.708 107.466 242.708 110.436C242.708 112.779 244.457 114.33 247.13 114.33C249.143 114.33 251.42 113.373 253.07 111.789C253.07 112.482 253.862 113.604 254.291 114.033H257.525V113.736C256.337 112.515 255.974 111.657 255.974 109.776ZM252.971 110.898C251.717 112.284 250.133 112.944 248.747 112.944C247.031 112.944 245.678 112.152 245.678 109.908C245.678 106.839 248.648 105.783 252.971 105.354V110.898ZM273.691 107.829H273.46C272.008 111.888 270.226 113.274 267.916 113.274C265.309 113.274 262.636 110.601 262.636 105.057C262.636 100.305 264.781 97.566 267.817 97.566C270.523 97.566 272.668 99.15 273.856 102.45H274.021L274.054 98.787C273.031 97.797 270.853 96.774 267.883 96.774C263.296 96.774 259.369 100.371 259.369 105.75C259.369 110.997 262.933 114.396 267.685 114.396C271.282 114.396 273.295 112.614 274.582 111.327L273.691 107.829ZM292.118 110.436V102.78C292.118 98.688 290.237 96.774 286.739 96.774C284.165 96.774 282.548 97.797 280.766 99.513H280.568V88.326H280.271C278.753 89.25 276.41 89.349 276.41 89.349V89.679C277.301 90.438 277.532 90.999 277.532 92.055V110.436C277.532 112.317 277.4 113.142 276.905 113.769V114.033H281.195V113.769C280.7 113.142 280.568 112.317 280.568 110.436V100.998C281.987 99.381 283.769 98.226 285.419 98.226C287.96 98.226 289.148 100.206 289.148 102.714V110.436C289.148 112.317 288.983 113.142 288.488 113.769V114H292.778V113.769C292.283 113.142 292.118 112.317 292.118 110.436Z" fill="#1B1B50"/>
</svg>
