<svg width="16" height="16" viewBox="0 0 16 16" fill="none" xmlns="http://www.w3.org/2000/svg">
<path d="M10.4667 8.46671L6.46666 12.4667C6.33333 12.6 6.19999 12.6667 5.99999 12.6667C5.79999 12.6667 5.66666 12.6 5.53333 12.4667C5.26666 12.2 5.26666 11.8 5.53333 11.5334L9.06666 8.00004L5.53333 4.46671C5.26666 4.20004 5.26666 3.80004 5.53333 3.53337C5.79999 3.26671 6.19999 3.26671 6.46666 3.53337L10.4667 7.53337C10.7333 7.80004 10.7333 8.20004 10.4667 8.46671Z" fill="white"/>
<mask id="mask0_56_165" style="mask-type:alpha" maskUnits="userSpaceOnUse" x="5" y="3" width="6" height="10">
<path d="M10.4667 8.46671L6.46666 12.4667C6.33333 12.6 6.19999 12.6667 5.99999 12.6667C5.79999 12.6667 5.66666 12.6 5.53333 12.4667C5.26666 12.2 5.26666 11.8 5.53333 11.5334L9.06666 8.00004L5.53333 4.46671C5.26666 4.20004 5.26666 3.80004 5.53333 3.53337C5.79999 3.26671 6.19999 3.26671 6.46666 3.53337L10.4667 7.53337C10.7333 7.80004 10.7333 8.20004 10.4667 8.46671Z" fill="white"/>
</mask>
<g mask="url(#mask0_56_165)">
<path fill-rule="evenodd" clip-rule="evenodd" d="M0 0H16V16H0V0Z" fill="white"/>
</g>
</svg>
